<svg width="1471" height="246" viewBox="0 0 1471 246" fill="none" xmlns="http://www.w3.org/2000/svg">
<mask id="mask0_32_116" style="mask-type:luminance" maskUnits="userSpaceOnUse" x="117" y="0" width="63" height="244">
<path d="M117.474 0.057251H179.073V243.875H117.474V0.057251Z" fill="white"/>
</mask>
<g mask="url(#mask0_32_116)">
<path d="M179.073 0.057251V243.812H117.474V0.057251H179.073Z" fill="#CB8CBD"/>
</g>
<mask id="mask1_32_116" style="mask-type:luminance" maskUnits="userSpaceOnUse" x="0" y="0" width="63" height="244">
<path d="M0.567627 0.057251H62.1666V243.875H0.567627V0.057251Z" fill="white"/>
</mask>
<g mask="url(#mask1_32_116)">
<path d="M62.1666 0.057251V243.812H0.567627V0.057251H62.1666Z" fill="#CB8CBD"/>
</g>
<path d="M320.167 32.9818H272.937V107.991H320.167V137.978H272.937V212.966H320.167V242.974H242.479V2.99463H320.167V32.9818Z" fill="white"/>
<path d="M365.87 212.966H413.099V242.974H335.411V2.99463H365.87V212.966Z" fill="white"/>
<path d="M506.031 32.9818H458.802V107.991H506.031V137.978H458.802V212.966H506.031V242.974H428.344V2.99463H506.031V32.9818Z" fill="white"/>
<path d="M603.839 2.99463H634.318L599.276 242.974H556.609L521.276 2.99463H551.734L577.943 212.371L603.839 2.99463Z" fill="white"/>
<path d="M727.241 32.9818H680.012V107.991H727.241V137.978H680.012V212.966H727.241V242.974H649.553V2.99463H727.241V32.9818Z" fill="white"/>
<path d="M833.59 2.99463H864.048V242.974H833.59L772.944 83.0902V242.974H742.486V2.99463H772.944L833.59 162.57V2.99463Z" fill="white"/>
<path d="M978.607 2.99463V32.9818H944.19V242.974H913.711V32.9818H879.294V2.99463H978.607Z" fill="white"/>
<path d="M1074.3 2.99463H1104.76V242.974H1074.3V137.978H1024.32V242.974H993.86V2.99463H1024.32V107.991H1074.3V2.99463Z" fill="white"/>
<path d="M1172.71 0C1190.38 0 1203.58 5.10212 1212.32 15.3012C1221.05 25.4901 1225.42 42.6835 1225.42 66.8865V179.082C1225.42 203.275 1221.05 220.468 1212.32 230.667C1203.58 240.871 1190.38 245.968 1172.71 245.968C1155.03 245.968 1141.82 240.871 1133.09 230.667C1124.36 220.468 1120 203.275 1120 179.082V66.8865C1120 42.6835 1124.36 25.4901 1133.09 15.3012C1141.82 5.10212 1155.03 0 1172.71 0ZM1194.94 179.082V66.8865C1194.94 52.8877 1193.47 43.2373 1190.53 37.9454C1187.58 32.6433 1181.64 29.9871 1172.71 29.9871C1163.97 29.9871 1158.08 32.6433 1155.03 37.9454C1151.98 43.2373 1150.46 52.8877 1150.46 66.8865V179.082C1150.46 193.086 1151.98 202.741 1155.03 208.043C1158.08 213.335 1163.97 215.981 1172.71 215.981C1181.64 215.981 1187.58 213.335 1190.53 208.043C1193.47 202.741 1194.94 193.086 1194.94 179.082Z" fill="white"/>
<path d="M1346.08 2.99463V179.082C1346.08 203.275 1341.71 220.468 1332.98 230.667C1324.24 240.871 1311.04 245.968 1293.37 245.968C1275.69 245.968 1262.48 240.871 1253.75 230.667C1245.02 220.468 1240.66 203.275 1240.66 179.082V2.99463H1271.12V179.082C1271.12 193.086 1272.64 202.741 1275.69 208.043C1278.74 213.335 1284.63 215.981 1293.37 215.981C1302.3 215.981 1308.24 213.335 1311.19 208.043C1314.13 202.741 1315.6 193.086 1315.6 179.082V2.99463H1346.08Z" fill="white"/>
<path d="M1467.35 221.683C1467.35 226.073 1467.54 230.272 1467.95 234.277C1468.37 238.272 1469.28 241.169 1470.7 242.974H1440.24C1438.81 241.169 1437.89 238.272 1437.49 234.277C1437.08 230.272 1436.89 226.073 1436.89 221.683V178.487C1436.89 168.083 1435.11 160.632 1431.55 156.13C1428 151.633 1423.37 148.838 1417.68 147.741C1412 146.633 1405.91 146.08 1399.41 146.08H1391.78V242.974H1361.32V2.99463H1399.41C1417.89 2.99463 1432.01 5.30212 1441.76 9.90685C1451.51 14.5013 1458.26 21.5981 1462.01 31.1973C1465.77 40.7965 1467.66 53.1954 1467.66 68.3838V79.1931C1467.66 93.1817 1465.62 104.929 1461.55 114.431C1457.5 123.938 1450.69 131.183 1441.14 136.173C1449.87 139.183 1456.42 144.336 1460.78 151.638C1465.16 158.93 1467.35 169.375 1467.35 182.979V221.683ZM1391.78 116.092H1399.41C1409.96 116.092 1417.93 114.795 1423.3 112.195C1428.69 109.585 1432.35 105.586 1434.28 100.196C1436.21 94.7969 1437.18 87.7975 1437.18 79.1931V68.3838C1437.18 59.1846 1436.21 52.0365 1434.28 46.9498C1432.35 41.8528 1428.69 38.248 1423.3 36.1405C1417.93 34.0381 1409.96 32.9818 1399.41 32.9818H1391.78V116.092Z" fill="white"/>
</svg>
