<svg xmlns="http://www.w3.org/2000/svg" xmlns:xlink="http://www.w3.org/1999/xlink" width="1500" zoomAndPan="magnify" viewBox="0 0 1125 374.999991" height="500" preserveAspectRatio="xMidYMid meet" version="1.0"><defs><g/><clipPath id="91092f18e2"><path d="M 105.355469 95.292969 L 151.554688 95.292969 L 151.554688 278.15625 L 105.355469 278.15625 Z M 105.355469 95.292969 " clip-rule="nonzero"/></clipPath><clipPath id="68e710b934"><path d="M 17.675781 95.292969 L 63.875 95.292969 L 63.875 278.15625 L 17.675781 278.15625 Z M 17.675781 95.292969 " clip-rule="nonzero"/></clipPath></defs><g clip-path="url(#91092f18e2)"><path fill="#b4be94" d="M 151.554688 95.292969 L 151.554688 278.109375 L 105.355469 278.109375 L 105.355469 95.292969 Z M 151.554688 95.292969 " fill-opacity="1" fill-rule="nonzero"/></g><g clip-path="url(#68e710b934)"><path fill="#b4be94" d="M 63.875 95.292969 L 63.875 278.109375 L 17.675781 278.109375 L 17.675781 95.292969 Z M 63.875 95.292969 " fill-opacity="1" fill-rule="nonzero"/></g><g fill="#ffffff" fill-opacity="1"><g transform="translate(173.140466, 277.445019)"><g><path d="M 63.984375 -159.96875 L 28.5625 -159.96875 L 28.5625 -102.828125 L 63.984375 -102.828125 L 63.984375 -79.984375 L 28.5625 -79.984375 L 28.5625 -22.859375 L 63.984375 -22.859375 L 63.984375 0 L 5.71875 0 L 5.71875 -182.8125 L 63.984375 -182.8125 Z M 63.984375 -159.96875 "/></g></g></g><g fill="#ffffff" fill-opacity="1"><g transform="translate(242.839785, 277.445019)"><g><path d="M 28.5625 -22.859375 L 63.984375 -22.859375 L 63.984375 0 L 5.71875 0 L 5.71875 -182.8125 L 28.5625 -182.8125 Z M 28.5625 -22.859375 "/></g></g></g><g fill="#ffffff" fill-opacity="1"><g transform="translate(312.539103, 277.445019)"><g><path d="M 63.984375 -159.96875 L 28.5625 -159.96875 L 28.5625 -102.828125 L 63.984375 -102.828125 L 63.984375 -79.984375 L 28.5625 -79.984375 L 28.5625 -22.859375 L 63.984375 -22.859375 L 63.984375 0 L 5.71875 0 L 5.71875 -182.8125 L 63.984375 -182.8125 Z M 63.984375 -159.96875 "/></g></g></g><g fill="#ffffff" fill-opacity="1"><g transform="translate(382.238414, 277.445019)"><g><path d="M 67.640625 -182.8125 L 90.5 -182.8125 L 64.21875 0 L 32.21875 0 L 5.71875 -182.8125 L 28.5625 -182.8125 L 48.21875 -23.3125 Z M 67.640625 -182.8125 "/></g></g></g><g fill="#ffffff" fill-opacity="1"><g transform="translate(478.446296, 277.445019)"><g><path d="M 63.984375 -159.96875 L 28.5625 -159.96875 L 28.5625 -102.828125 L 63.984375 -102.828125 L 63.984375 -79.984375 L 28.5625 -79.984375 L 28.5625 -22.859375 L 63.984375 -22.859375 L 63.984375 0 L 5.71875 0 L 5.71875 -182.8125 L 63.984375 -182.8125 Z M 63.984375 -159.96875 "/></g></g></g><g fill="#ffffff" fill-opacity="1"><g transform="translate(548.145619, 277.445019)"><g><path d="M 74.046875 -182.8125 L 96.890625 -182.8125 L 96.890625 0 L 74.046875 0 L 28.5625 -121.796875 L 28.5625 0 L 5.71875 0 L 5.71875 -182.8125 L 28.5625 -182.8125 L 74.046875 -61.25 Z M 74.046875 -182.8125 "/></g></g></g><g fill="#ffffff" fill-opacity="1"><g transform="translate(650.752128, 277.445019)"><g><path d="M 80.203125 -182.8125 L 80.203125 -159.96875 L 54.390625 -159.96875 L 54.390625 0 L 31.53125 0 L 31.53125 -159.96875 L 5.71875 -159.96875 L 5.71875 -182.8125 Z M 80.203125 -182.8125 "/></g></g></g><g fill="#ffffff" fill-opacity="1"><g transform="translate(736.676507, 277.445019)"><g><path d="M 66.046875 -182.8125 L 88.890625 -182.8125 L 88.890625 0 L 66.046875 0 L 66.046875 -79.984375 L 28.5625 -79.984375 L 28.5625 0 L 5.71875 0 L 5.71875 -182.8125 L 28.5625 -182.8125 L 28.5625 -102.828125 L 66.046875 -102.828125 Z M 66.046875 -182.8125 "/></g></g></g><g fill="#ffffff" fill-opacity="1"><g transform="translate(831.284751, 277.445019)"><g><path d="M 45.25 -185.09375 C 58.5 -185.09375 68.398438 -181.207031 74.953125 -173.4375 C 81.503906 -165.675781 84.78125 -152.578125 84.78125 -134.140625 L 84.78125 -48.671875 C 84.78125 -30.242188 81.503906 -17.144531 74.953125 -9.375 C 68.398438 -1.601562 58.5 2.28125 45.25 2.28125 C 31.988281 2.28125 22.082031 -1.601562 15.53125 -9.375 C 8.988281 -17.144531 5.71875 -30.242188 5.71875 -48.671875 L 5.71875 -134.140625 C 5.71875 -152.578125 8.988281 -165.675781 15.53125 -173.4375 C 22.082031 -181.207031 31.988281 -185.09375 45.25 -185.09375 Z M 61.921875 -48.671875 L 61.921875 -134.140625 C 61.921875 -144.804688 60.816406 -152.15625 58.609375 -156.1875 C 56.398438 -160.226562 51.945312 -162.25 45.25 -162.25 C 38.695312 -162.25 34.273438 -160.226562 31.984375 -156.1875 C 29.703125 -152.15625 28.5625 -144.804688 28.5625 -134.140625 L 28.5625 -48.671875 C 28.5625 -38.003906 29.703125 -30.648438 31.984375 -26.609375 C 34.273438 -22.578125 38.695312 -20.5625 45.25 -20.5625 C 51.945312 -20.5625 56.398438 -22.578125 58.609375 -26.609375 C 60.816406 -30.648438 61.921875 -38.003906 61.921875 -48.671875 Z M 61.921875 -48.671875 "/></g></g></g><g fill="#ffffff" fill-opacity="1"><g transform="translate(921.779615, 277.445019)"><g><path d="M 84.78125 -182.8125 L 84.78125 -48.671875 C 84.78125 -30.242188 81.503906 -17.144531 74.953125 -9.375 C 68.398438 -1.601562 58.5 2.28125 45.25 2.28125 C 31.988281 2.28125 22.082031 -1.601562 15.53125 -9.375 C 8.988281 -17.144531 5.71875 -30.242188 5.71875 -48.671875 L 5.71875 -182.8125 L 28.5625 -182.8125 L 28.5625 -48.671875 C 28.5625 -38.003906 29.703125 -30.648438 31.984375 -26.609375 C 34.273438 -22.578125 38.695312 -20.5625 45.25 -20.5625 C 51.945312 -20.5625 56.398438 -22.578125 58.609375 -26.609375 C 60.816406 -30.648438 61.921875 -38.003906 61.921875 -48.671875 L 61.921875 -182.8125 Z M 84.78125 -182.8125 "/></g></g></g><g fill="#ffffff" fill-opacity="1"><g transform="translate(1012.27448, 277.445019)"><g><path d="M 85.234375 -16.21875 C 85.234375 -12.875 85.382812 -9.675781 85.6875 -6.625 C 86 -3.582031 86.6875 -1.375 87.75 0 L 64.90625 0 C 63.832031 -1.375 63.144531 -3.582031 62.84375 -6.625 C 62.539062 -9.675781 62.390625 -12.875 62.390625 -16.21875 L 62.390625 -49.125 C 62.390625 -57.050781 61.054688 -62.726562 58.390625 -66.15625 C 55.722656 -69.582031 52.253906 -71.710938 47.984375 -72.546875 C 43.722656 -73.390625 39.15625 -73.8125 34.28125 -73.8125 L 28.5625 -73.8125 L 28.5625 0 L 5.71875 0 L 5.71875 -182.8125 L 34.28125 -182.8125 C 48.144531 -182.8125 58.734375 -181.054688 66.046875 -177.546875 C 73.359375 -174.046875 78.421875 -168.640625 81.234375 -161.328125 C 84.054688 -154.015625 85.46875 -144.570312 85.46875 -133 L 85.46875 -124.765625 C 85.46875 -114.109375 83.941406 -105.160156 80.890625 -97.921875 C 77.847656 -90.679688 72.742188 -85.160156 65.578125 -81.359375 C 72.128906 -79.066406 77.039062 -75.140625 80.3125 -69.578125 C 83.59375 -64.023438 85.234375 -56.066406 85.234375 -45.703125 Z M 28.5625 -96.65625 L 34.28125 -96.65625 C 42.195312 -96.65625 48.171875 -97.644531 52.203125 -99.625 C 56.242188 -101.613281 58.988281 -104.660156 60.4375 -108.765625 C 61.882812 -112.878906 62.609375 -118.210938 62.609375 -124.765625 L 62.609375 -133 C 62.609375 -140.007812 61.882812 -145.453125 60.4375 -149.328125 C 58.988281 -153.210938 56.242188 -155.957031 52.203125 -157.5625 C 48.171875 -159.164062 42.195312 -159.96875 34.28125 -159.96875 L 28.5625 -159.96875 Z M 28.5625 -96.65625 "/></g></g></g></svg>